<?xml version="1.0" encoding="UTF-8" standalone="no"?>
<!-- Created with Inkscape (http://www.inkscape.org/) -->

<svg
   xmlns:dc="http://purl.org/dc/elements/1.1/"
   xmlns:cc="http://creativecommons.org/ns#"
   xmlns:rdf="http://www.w3.org/1999/02/22-rdf-syntax-ns#"
   xmlns:svg="http://www.w3.org/2000/svg"
   xmlns="http://www.w3.org/2000/svg"
   xmlns:sodipodi="http://sodipodi.sourceforge.net/DTD/sodipodi-0.dtd"
   xmlns:inkscape="http://www.inkscape.org/namespaces/inkscape"
   width="157.34816mm"
   height="106.06747mm"
   viewBox="0 0 157.34816 106.06748"
   version="1.1"
   id="svg8"
   inkscape:version="0.92.2 (5c3e80d, 2017-08-06)"
   sodipodi:docname="end-img.svg"
   inkscape:export-filename="D:\Projets\~autres\KanaLearning\res\end-img.png"
   inkscape:export-xdpi="96"
   inkscape:export-ydpi="96">
  <defs
     id="defs2">
    <inkscape:path-effect
       effect="bspline"
       id="path-effect1075"
       is_visible="true"
       weight="33.333333"
       steps="2"
       helper_size="0"
       apply_no_weight="true"
       apply_with_weight="true"
       only_selected="false" />
    <inkscape:path-effect
       effect="bspline"
       id="path-effect1069"
       is_visible="true"
       weight="33.333333"
       steps="2"
       helper_size="0"
       apply_no_weight="true"
       apply_with_weight="true"
       only_selected="false" />
    <inkscape:path-effect
       effect="bspline"
       id="path-effect1019"
       is_visible="true"
       weight="33.333333"
       steps="2"
       helper_size="0"
       apply_no_weight="true"
       apply_with_weight="true"
       only_selected="false" />
  </defs>
  <sodipodi:namedview
     id="base"
     pagecolor="#ffffff"
     bordercolor="#666666"
     borderopacity="1.0"
     inkscape:pageopacity="0.0"
     inkscape:pageshadow="2"
     inkscape:zoom="0.98994949"
     inkscape:cx="42.873599"
     inkscape:cy="268.14926"
     inkscape:document-units="mm"
     inkscape:current-layer="layer1"
     showgrid="false"
     inkscape:window-width="1680"
     inkscape:window-height="998"
     inkscape:window-x="-8"
     inkscape:window-y="-8"
     inkscape:window-maximized="1"
     inkscape:snap-global="false"
     fit-margin-top="0"
     fit-margin-left="0"
     fit-margin-right="0"
     fit-margin-bottom="0" />
  <metadata
     id="metadata5">
    <rdf:RDF>
      <cc:Work
         rdf:about="">
        <dc:format>image/svg+xml</dc:format>
        <dc:type
           rdf:resource="http://purl.org/dc/dcmitype/StillImage" />
        <dc:title></dc:title>
      </cc:Work>
    </rdf:RDF>
  </metadata>
  <g
     inkscape:label="Calque 1"
     inkscape:groupmode="layer"
     id="layer1"
     transform="translate(-20.966536,-75.637406)">
    <path
       style="opacity:1;vector-effect:none;fill:#ffffff;fill-opacity:1;fill-rule:nonzero;stroke:none;stroke-width:0.5;stroke-linecap:round;stroke-linejoin:round;stroke-miterlimit:4;stroke-dasharray:none;stroke-dashoffset:0;stroke-opacity:1"
       d="m 42.87615,95.963657 c -1.247108,1.202764 -3.67978,2.555622 -6.277223,4.858093 -2.597443,2.30248 -5.358867,5.55383 -7.430325,8.93938 -2.071458,3.38556 -3.45223,6.9043 -4.588198,10.84673 -1.135968,3.94243 -2.026787,8.30744 -2.160443,13.27443 -0.133656,4.96698 0.489929,10.5347 1.581298,15.2566 1.091368,4.72189 2.650375,8.59714 4.966785,12.22767 2.316411,3.63053 5.389902,7.01582 8.396761,9.3322 3.006859,2.31637 5.946812,3.56362 8.574942,4.47678 2.62813,0.91315 4.944563,1.49226 6.503591,1.91542 1.559027,0.42317 2.360897,0.69046 3.362997,1.20265 1.0021,0.51219 2.205049,1.2696 3.296432,1.75959 1.091382,0.48999 2.071432,0.71273 3.095919,0.64587 1.024488,-0.0669 2.093778,-0.42329 2.873188,-0.95782 0.779409,-0.53453 1.269548,-1.24746 1.781758,-1.69278 0.51221,-0.44531 1.046968,-0.62357 3.42886,-1.18008 2.381891,-0.55651 6.616181,-1.49251 10.157398,-2.80658 3.541217,-1.31407 6.392297,-3.0069 8.419018,-4.32095 2.02672,-1.31404 3.229559,-2.24958 4.52118,-2.71719 1.291621,-0.46761 2.672851,-0.46761 3.986831,-0.75717 1.313981,-0.28956 2.561485,-0.86876 3.407691,-1.64825 0.84621,-0.7795 1.29178,-1.75975 1.38081,-2.76177 0.089,-1.00203 -0.17832,-2.0269 -0.69051,-3.00672 -0.51218,-0.97982 -1.26959,-1.91544 -1.737316,-2.65048 -0.46773,-0.73505 -0.645919,-1.26961 -0.690442,-2.27171 -0.04452,-1.0021 0.04459,-2.47253 -0.06676,-4.16502 -0.111358,-1.69249 -0.423232,-3.60829 -0.534566,-5.01144 -0.111334,-1.40315 -0.02223,-2.29414 0.423208,-2.76172 0.445443,-0.46758 1.24751,-0.51214 2.0269,-0.97985 0.77939,-0.4677 1.53691,-1.35891 1.89315,-2.22738 0.35624,-0.86848 0.31168,-1.71509 0.089,-2.53898 -0.22269,-0.82389 -0.62371,-1.62594 -1.40315,-2.6058 -0.77943,-0.97986 -1.937746,-2.13818 -2.850936,-3.16273 -0.91319,-1.02456 -1.581364,-1.91546 -2.026818,-2.62821 -0.445455,-0.71275 -0.66819,-1.24732 -0.712714,-2.58348 -0.04452,-1.33616 0.08914,-3.47483 5e-5,-5.94686 -0.08909,-2.47204 -0.400946,-5.27874 -1.069092,-7.81765 -0.668145,-2.53891 -1.692761,-4.81089 -3.006776,-6.85985 -1.314015,-2.04897 -2.917712,-3.87541 -4.788555,-5.545807 -1.870843,-1.6704 -4.009023,-3.184943 -7.149436,-4.654933 -3.140414,-1.46999 -7.282994,-2.895393 -10.534755,-3.519057 -3.251761,-0.623664 -5.612551,-0.445491 -6.837709,-0.512399 -1.225158,-0.06691 -1.314239,-0.378693 -1.202904,-1.224728 0.111336,-0.846035 0.423327,-2.2277 0.73511,-3.563904 0.311783,-1.336205 0.623665,-2.628295 0.467769,-3.897572 -0.155897,-1.269277 -0.779677,-2.516835 -1.380956,-3.340828 -0.601278,-0.823993 -1.180409,-1.22493 -1.714837,-1.314103 -0.534428,-0.08917 -1.024378,0.133532 -1.715134,0.623726 -0.690756,0.490194 -1.581071,1.24696 -2.383023,1.581169 -0.801951,0.33421 -1.514442,0.245148 -2.271789,0.423297 -0.757348,0.178149 -1.5589,0.623456 -2.561459,1.826485 -1.00256,1.20303 -2.204801,3.162237 -3.273974,5.144641 -1.069173,1.982404 -2.004467,3.986607 -2.503183,5.515256 -0.498715,1.528648 -0.560551,2.581049 -1.807659,3.783814 z"
       id="path1017"
       inkscape:connector-curvature="0"
       inkscape:path-effect="#path-effect1019"
       inkscape:original-d="m 44.061396,95.81374 c -2.432404,1.352592 -4.865076,2.705449 -7.29801,4.05857 -2.761877,3.25194 -5.523306,6.50329 -8.285355,9.75534 -1.380749,3.51909 -2.76152,7.03783 -4.142679,10.55715 -0.890715,4.36553 -1.781532,8.73054 -2.672694,13.0962 0.623938,5.56824 1.247521,11.13596 1.870887,16.70434 1.559401,3.87531 3.118408,7.75056 4.677217,11.62624 3.073971,3.38526 6.147464,6.77055 9.220798,10.15623 2.94024,1.247 5.880195,2.49425 8.819893,3.74178 2.316499,0.5788 4.632936,1.15789 6.949009,1.73724 0.802007,0.26699 1.603877,0.53428 2.405427,0.80181 1.20274,0.75685 2.40569,1.51426 3.60814,2.27179 0.98019,0.22245 1.96024,0.44519 2.93996,0.66818 1.06913,-0.35656 2.13842,-0.71299 3.20724,-1.06908 0.49011,-0.71277 0.98025,-1.4257 1.46998,-2.13816 0.53458,-0.17837 1.06934,-0.35662 1.60361,-0.53454 4.22952,-0.93515 8.46381,-1.87115 12.69531,-2.80632 2.85093,-1.69285 5.70201,-3.38568 8.55262,-5.07812 1.20285,-0.93561 2.40569,-1.87115 3.60814,-2.80633 1.38082,-2.7e-4 2.76205,-2.7e-4 4.14268,0 1.24728,-0.57923 2.49478,-1.15844 3.741771,-1.73726 0.4456,-0.97999 0.89117,-1.96024 1.33635,-2.93996 -0.26692,-1.02447 -0.53427,-2.04934 -0.80181,-3.07359 -0.75686,-0.93555 -1.51426,-1.87117 -2.271791,-2.80634 -0.17791,-0.53478 -0.35609,-1.06935 -0.53454,-1.60362 0.0893,-1.46981 0.17845,-2.94023 0.26727,-4.40995 -0.31149,-1.91533 -0.62336,-3.83113 -0.93544,-5.74629 0.0893,-0.89107 0.17844,-1.78206 0.26727,-2.6727 0.80181,-0.0448 1.603881,-0.0893 2.405421,-0.13363 0.75727,-0.89086 1.5148,-1.78206 2.27179,-2.6727 -0.0443,-0.84635 -0.0888,-1.69297 -0.13363,-2.53906 -0.40052,-0.80183 -0.80155,-1.60388 -1.20271,-2.40542 -1.15776,-1.15828 -2.316071,-2.3166 -3.474511,-3.47451 -0.66791,-0.89116 -1.33608,-1.78206 -2.00452,-2.67269 -0.22245,-0.53478 -0.44518,-1.06935 -0.66817,-1.60362 0.13386,-2.1379 0.26753,-4.27657 0.4009,-6.41446 -0.31151,-2.80623 -0.62336,-5.61293 -0.93544,-8.41899 -1.02419,-2.27187 -2.0488,-4.54385 -3.0736,-6.81538 -1.60327,-1.82651 -3.20697,-3.65294 -4.81085,-5.479022 -2.13787,-1.514776 -4.27605,-3.029318 -6.41447,-4.543581 -4.14251,-1.425736 -8.28509,-2.851139 -12.42804,-4.276312 -2.3607,0.177922 -4.72149,0.356095 -7.08264,0.534538 -0.0888,-0.312116 -0.17791,-0.623893 -0.26727,-0.935443 0.31191,-1.380384 0.6239,-2.762049 0.93545,-4.142679 0.31201,-1.291778 0.62389,-2.583868 0.93544,-3.875407 -0.62321,-1.247222 -1.24699,-2.49478 -1.87089,-3.741772 -0.57877,-0.401135 -1.1579,-0.802074 -1.73725,-1.202714 -0.48977,0.22248 -0.97972,0.445185 -1.46998,0.668173 -0.89122,0.757492 -1.78153,1.514264 -2.6727,2.271792 -0.71268,-0.08938 -1.42517,-0.178445 -2.138153,-0.267269 -0.801799,0.445326 -1.603351,0.890633 -2.405425,1.336347 -1.20292,1.960481 -2.40516,3.919689 -3.608139,5.879928 -0.935326,2.004576 -1.870622,4.008779 -2.806329,6.013567 -0.06159,1.05247 -0.123426,2.104871 -0.185537,3.157704 z" />
    <path
       style="opacity:1;vector-effect:none;fill:#f4dcd5;fill-opacity:1;fill-rule:nonzero;stroke:none;stroke-width:0.5;stroke-linecap:round;stroke-linejoin:round;stroke-miterlimit:4;stroke-dasharray:none;stroke-dashoffset:0;stroke-opacity:1"
       d="m 81.391888,128.50707 c -1.403159,0.21157 -2.873142,0.47884 -4.19847,0.95771 -1.325328,0.47886 -2.505525,1.16916 -3.229496,1.7928 -0.723971,0.62364 -0.991167,1.1803 -1.035764,1.74849 -0.0446,0.56819 0.133481,1.14694 0.879876,1.77077 0.746395,0.62384 2.06009,1.29182 3.930948,1.74838 1.870858,0.45656 4.298747,0.70158 6.37002,0.80179 2.071274,0.10021 3.786418,0.0557 5.345402,-0.16707 1.558984,-0.22273 2.96237,-0.6237 4.02022,-1.1137 1.057849,-0.49 1.770732,-1.06921 2.216048,-1.63709 0.445317,-0.56787 0.623569,-1.12491 0.523375,-1.74823 -0.100194,-0.62333 -0.479042,-1.31417 -1.113686,-1.93769 -0.634645,-0.62352 -1.525665,-1.18041 -3.173845,-1.62587 -1.648181,-0.44547 -4.053415,-0.77953 -5.924329,-0.86865 -1.870914,-0.0891 -3.20714,0.0668 -4.610299,0.27836 z"
       id="path1067"
       inkscape:connector-curvature="0"
       inkscape:path-effect="#path-effect1069"
       inkscape:original-d="m 81.458408,128.45143 c -1.469718,0.267 -2.939701,0.53427 -4.409948,0.80181 -1.180418,0.69032 -2.360616,1.38062 -3.54132,2.07133 -0.267077,0.5567 -0.534274,1.11336 -0.801808,1.67044 0.178546,0.57915 0.356624,1.1579 0.534538,1.73725 1.314721,0.6681 2.628416,1.33608 3.942225,2.00452 2.427773,0.24472 4.855663,0.48973 7.283097,0.73499 1.715077,-0.0448 3.430223,-0.0893 5.144938,-0.13363 1.403207,-0.40111 2.806594,-0.80207 4.209495,-1.20271 0.712823,-0.57922 1.425702,-1.15844 2.138156,-1.73725 0.178372,-0.55685 0.356624,-1.11389 0.534539,-1.67044 -0.378152,-0.69032 -0.756999,-1.38116 -1.135895,-2.07134 -0.890516,-0.557 -1.781533,-1.11389 -2.672696,-1.67043 -2.405353,-0.33438 -4.810587,-0.66844 -7.216277,-1.00226 -1.336207,0.15565 -2.672432,0.31155 -4.009044,0.46772 z" />
    <ellipse
       style="opacity:1;vector-effect:none;fill:#f4dcd5;fill-opacity:1;fill-rule:nonzero;stroke:none;stroke-width:0.5;stroke-linecap:round;stroke-linejoin:round;stroke-miterlimit:4;stroke-dasharray:none;stroke-dashoffset:0;stroke-opacity:1"
       id="path1071"
       cx="49.920601"
       cy="121.90333"
       rx="6.3476515"
       ry="5.7462945" />
    <path
       style="opacity:1;vector-effect:none;fill:#f4dcd5;fill-opacity:1;fill-rule:nonzero;stroke:none;stroke-width:0.5;stroke-linecap:round;stroke-linejoin:round;stroke-miterlimit:4;stroke-dasharray:none;stroke-dashoffset:0;stroke-opacity:1"
       d="m 89.833052,109.5865 c -0.445515,0.5121 -0.868691,1.53664 -1.147166,2.6059 -0.278476,1.06926 -0.412069,2.18254 -0.100183,3.17392 0.311886,0.99137 1.068954,1.85977 2.171536,2.57253 1.102583,0.71276 2.550261,1.26956 3.541399,1.18033 0.991138,-0.0892 1.525729,-0.82429 1.714954,-1.92645 0.189225,-1.10215 0.03325,-2.57273 -0.523493,-4.1316 -0.556749,-1.55887 -1.514615,-3.20729 -2.293954,-3.88664 -0.77934,-0.67935 -1.380723,-0.3898 -1.915413,-0.24495 -0.53469,0.14485 -1.002164,0.14485 -1.44768,0.65696 z"
       id="path1073"
       inkscape:connector-curvature="0"
       inkscape:path-effect="#path-effect1075"
       inkscape:original-d="m 89.810582,109.07439 c -0.422912,1.02427 -0.846089,2.0488 -1.269531,3.0736 -0.133411,1.1137 -0.267004,2.22698 -0.400904,3.34087 0.757727,0.86858 1.514792,1.73698 2.271791,2.60587 1.448007,0.55656 2.895685,1.11336 4.34313,1.67044 0.534752,-0.73519 1.069343,-1.47025 1.603618,-2.20497 -0.15558,-1.46965 -0.31155,-2.94023 -0.467722,-4.40995 -0.957299,-1.64817 -1.915167,-3.29659 -2.873148,-4.94449 -0.601062,0.28927 -1.202448,0.57882 -1.804069,0.86863 -0.467705,-2.7e-4 -0.935179,-2.7e-4 -1.403165,0 z" />
    <path
       inkscape:connector-curvature="0"
       id="path1009"
       d="m 59.01524,181.18256 c -0.727647,-0.28477 -2.101005,-1.03916 -3.051906,-1.67644 -1.449668,-0.97153 -2.245317,-1.25936 -4.92615,-1.78206 -12.89941,-2.5151 -21.444952,-9.55696 -26.232261,-21.61642 -2.458834,-6.19392 -3.555834,-12.15746 -3.558447,-19.34454 -0.0042,-11.52847 2.811332,-21.44012 8.465443,-29.80135 2.317978,-3.4278 7.462935,-8.598668 10.748426,-10.802564 l 2.502764,-1.678845 0.94458,-2.518347 c 1.287128,-3.431613 4.141039,-9.193776 5.38633,-10.875222 1.993363,-2.691527 4.334066,-3.763577 5.869378,-2.688202 0.58619,0.410584 0.658854,0.376809 1.251142,-0.581533 0.841507,-1.361587 1.659156,-1.888973 2.928622,-1.888973 1.365498,0 2.391577,0.941568 3.380829,3.102376 0.616375,1.346344 0.751891,2.072664 0.74534,3.994766 -0.0075,2.198681 -0.180994,2.926328 -1.363654,5.719061 -0.17079,0.403306 0.248787,0.487175 3.242534,0.648147 10.017025,0.538612 17.483558,3.841953 23.933329,10.58857 4.504067,4.711366 7.099994,9.954556 7.865914,15.887406 0.28161,2.18137 0.12801,10.08851 -0.21908,11.27829 -0.10085,0.3457 0.70488,1.35201 2.62478,3.27815 3.467957,3.47926 4.323837,4.87161 4.353877,7.08296 0.0157,1.15612 -0.15262,1.93893 -0.57095,2.65522 -0.69626,1.19214 -2.25767,2.32569 -3.20356,2.32569 -0.366577,0 -0.743397,0.12442 -0.837387,0.27648 -0.094,0.15207 0.0945,1.57867 0.41884,3.17023 0.618887,3.03692 0.737537,6.2685 0.311007,8.47026 -0.243437,1.25663 -0.215447,1.33932 0.7132,2.10692 2.20205,1.82016 2.92455,5.63528 1.54187,8.14181 -1.03888,1.88329 -3.353007,2.95022 -6.496627,2.99529 l -2.411697,0.0346 -1.87695,1.71712 c -4.527537,4.14199 -11.059791,6.86614 -19.826788,8.2684 l -4.060049,0.64938 -1.111623,1.26287 c -1.77664,2.01837 -4.774503,2.65975 -7.481076,1.60053 z m 4.659765,-1.99876 c 1.259532,-0.63281 2.333089,-2.19609 2.324673,-3.3851 -0.01499,-2.11908 -1.963213,-4.64397 -4.296477,-5.56827 -1.07926,-0.42753 -1.238831,-0.60006 -1.162632,-1.25703 0.122832,-1.05902 1.254675,-1.13565 3.083745,-0.20879 2.455032,1.24406 4.416351,4.18089 4.416351,6.61293 0,0.72446 0.08698,0.79883 0.799309,0.6834 0.43962,-0.0712 1.780279,-0.27427 2.979242,-0.45116 13.359093,-1.97094 22.30485,-8.69289 25.517787,-19.17438 0.7529,-2.45618 1.05082,-5.3318 0.79747,-7.69756 -0.20087,-1.87566 -0.53811,-2.39365 -0.8725,-1.34009 -0.32051,1.00982 -3.133887,3.51894 -4.945867,4.41097 -6.007967,2.95771 -15.192451,1.77027 -19.430499,-2.51213 -1.209257,-1.22191 -1.216738,-1.22461 -3.682311,-1.33052 -1.831284,-0.0787 -2.823866,-0.27937 -3.83581,-0.77561 -1.170619,-0.57406 -1.460636,-0.61698 -2.034605,-0.3011 -0.914499,0.50328 -5.577822,0.43143 -7.063857,-0.10884 -0.908439,-0.33028 -1.182773,-0.59183 -1.254761,-1.19628 -0.127575,-1.0712 0.370772,-1.17699 2.992942,-0.63537 4.562468,0.9424 6.815283,-0.42289 6.478649,-3.92631 -0.257564,-2.68052 -2.29,-3.98317 -6.655983,-4.26603 -3.153643,-0.20432 -3.968699,-0.71397 -3.081714,-1.927 0.333591,-0.45621 0.658401,-0.47635 3.43686,-0.21309 1.68765,0.15991 3.429273,0.42792 3.870272,0.59559 0.711719,0.2706 0.93356,0.19209 1.974195,-0.69866 1.286853,-1.1015 3.300477,-1.90704 4.767063,-1.90704 0.815538,0 0.987266,-0.13417 1.270635,-0.9928 0.430642,-1.30485 2.375057,-3.48899 3.888048,-4.36741 2.524747,-1.46581 4.442813,-1.76277 11.234239,-1.73934 4.831577,0.0167 6.641937,0.12938 7.980717,0.49681 0.95237,0.26138 1.789857,0.41696 1.861077,0.34574 0.0712,-0.0712 0.14219,-2.51832 0.1577,-5.43799 0.0303,-5.71243 -0.16526,-6.9247 -1.763007,-10.92606 -1.27048,-3.18173 -3.00028,-5.80674 -5.692227,-8.63805 -6.644792,-6.9888 -15.177452,-10.326993 -25.360891,-9.921824 -10.502678,0.417872 -19.223037,4.110133 -26.167145,11.079364 -5.626672,5.64702 -9.38729,12.51403 -11.470681,20.94584 -1.134039,4.58963 -1.456766,7.46607 -1.450322,12.92665 0.01779,15.06828 5.632402,27.83326 14.977311,34.05128 4.641962,3.08873 11.006231,5.46881 14.656887,5.48135 1.087862,0.004 1.682865,0.2616 3.640707,1.57788 3.305078,2.22203 5.179291,2.66877 7.11541,1.69603 z M 50.914329,117.22394 c -1.329405,-1.3294 -0.605478,-2.08195 3.097348,-3.21982 3.102964,-0.95353 3.929967,-0.94781 4.453691,0.0308 0.512081,0.95683 0.06172,1.67122 -1.269235,2.01335 -1.063479,0.27337 -4.360478,1.29525 -5.337166,1.65421 -0.187469,0.0689 -0.612556,-0.14643 -0.944638,-0.47852 z m 18.928414,-3.27784 c -0.512539,-0.51254 -0.448814,-0.70145 0.645086,-1.91226 l 0.993872,-1.10011 -0.382867,-1.64703 c -0.301294,-1.29614 -0.307691,-1.74985 -0.03002,-2.12958 0.607803,-0.83122 1.426629,-0.39764 1.681106,0.89017 0.48626,2.46077 0.4617,2.4228 1.729626,2.67354 1.464231,0.28957 2.101776,1.09182 1.326046,1.66863 -0.385791,0.28686 -0.826619,0.31662 -1.719175,0.11608 -1.139222,-0.25596 -1.254037,-0.21727 -2.254678,0.75982 -1.138689,1.11191 -1.450955,1.21878 -1.988992,0.68074 z m 14.823546,-3.77855 c -0.554952,-0.55495 -0.40558,-1.61307 0.2972,-2.10532 0.47198,-0.33059 1.37238,-0.45246 3.34257,-0.45246 2.309027,0 2.780117,0.0835 3.277887,0.58131 0.65937,0.65936 0.70788,0.96436 0.28043,1.76305 -0.27014,0.50476 -0.63545,0.56221 -3.575087,0.56221 -2.15906,0 -3.393,-0.11879 -3.623,-0.34879 z m 13.153164,55.25153 c 2.205687,-0.61236 3.750427,-3.00864 3.242947,-5.03061 -0.0975,-0.38839 -0.52114,-1.11486 -0.94146,-1.61439 l -0.764227,-0.90823 -1.40638,2.93501 c -0.77351,1.61426 -1.67221,3.30834 -1.99711,3.76461 -0.3249,0.45628 -0.59073,0.90751 -0.59073,1.00273 0,0.27264 1.20022,0.19979 2.45696,-0.14912 z m -8.995634,-14.21093 c 4.817467,-1.23211 7.352234,-3.84149 8.786404,-9.04506 0.63456,-2.30237 0.70345,-8.46155 0.11664,-10.42873 -0.55365,-1.85604 -2.12592,-3.25483 -4.431887,-3.94289 -1.55378,-0.46362 -2.80389,-0.55459 -7.669517,-0.5581 -8.833995,-0.006 -11.541962,0.84871 -13.490118,4.25981 -2.477277,4.33755 -1.517614,12.69567 1.893278,16.4894 2.936713,3.26633 9.252258,4.64321 14.7952,3.22557 z m -6.83158,-13.37567 c -4.115148,-0.57145 -7.317754,-1.47619 -8.450916,-2.3874 -4.518444,-3.63343 3.15602,-8.22953 12.810786,-7.67216 5.713177,0.32982 9.260934,1.62884 10.272924,3.76144 0.61904,1.30454 0.60532,1.88252 -0.071,2.9917 -1.22697,2.01213 -4.801657,3.32049 -9.474934,3.46791 -1.75865,0.0555 -4.047714,-0.0172 -5.086815,-0.16149 z m 8.946877,-1.30532 c 4.666947,-1.10031 6.308317,-3.34936 4.019637,-5.50786 -1.229087,-1.15918 -3.270847,-1.80437 -6.999244,-2.21173 -4.427597,-0.48376 -9.329646,0.2173 -12.371929,1.76936 -3.35995,1.71412 -3.077763,3.86258 0.670862,5.10767 3.678094,1.22167 11.233477,1.65529 14.680674,0.84256 z m -20.282531,9.75901 c 0,-0.14945 -0.120869,-0.58964 -0.268598,-0.9782 -0.219816,-0.57815 -0.523365,-0.73357 -1.671283,-0.8557 -0.771476,-0.0821 -1.598878,-0.23052 -1.83867,-0.32987 -0.290115,-0.1202 -0.55653,0.0797 -0.796263,0.59761 -0.19815,0.42804 -0.298367,0.84016 -0.222696,0.91582 0.262118,0.26212 2.912551,0.88293 3.852872,0.90246 0.519551,0.0108 0.944638,-0.10266 0.944638,-0.25212 z m -1.268455,-4.56468 c -0.101656,-0.74169 -0.184834,-1.85346 -0.184834,-2.47059 0,-0.89884 -0.107206,-1.12207 -0.538873,-1.12207 -0.932931,0 -2.077554,1.31663 -2.072599,2.38405 0.0055,1.19212 0.217819,1.53276 1.310149,2.10234 1.467487,0.7652 1.694804,0.62849 1.486157,-0.89373 z m 31.8536,-2.16846 c 0.85019,-1.13987 0.75759,-3.20932 -0.20896,-4.66987 -0.42495,-0.64214 -0.8104,-1.12283 -0.85655,-1.0682 -0.0461,0.0546 -0.15847,1.57871 -0.249607,3.38683 -0.14586,2.89379 -0.11078,3.27669 0.292877,3.19724 0.25221,-0.0496 0.71222,-0.43034 1.02224,-0.846 z m -32.971051,-3.14299 c 0.617027,-0.16364 0.806985,-0.40895 0.878367,-1.13428 0.08245,-0.83775 0.01539,-0.92548 -0.70754,-0.92548 -0.905805,0 -3.080489,0.97496 -3.617216,1.62168 -0.290128,0.34958 -0.232432,0.56239 0.308635,1.13833 l 0.665475,0.70837 0.842496,-0.59991 c 0.463373,-0.32995 1.196777,-0.69387 1.629783,-0.80871 z M 49.147909,91.701649 c 1.843938,-0.626838 3.058943,-1.897347 4.383041,-4.58326 1.453341,-2.948081 1.802534,-5.436191 0.916359,-6.529349 -0.514941,-0.635212 -0.666086,-0.677235 -1.336732,-0.37167 -1.601007,0.72947 -5.177133,6.57988 -6.840506,11.190826 l -0.603845,1.673883 1.08686,-0.467898 c 0.597776,-0.257345 1.675445,-0.667984 2.394823,-0.912532 z m 9.941095,-2.296972 c 0.272093,-0.07518 0.852106,-0.881937 1.288919,-1.792801 0.637947,-1.330291 0.816152,-2.17078 0.90578,-4.272039 0.09795,-2.296498 0.02929,-2.77563 -0.562275,-3.92388 -1.046636,-2.031541 -1.774254,-1.944222 -2.856175,0.342764 -0.53504,1.130976 -0.869215,2.306239 -0.869354,3.057462 -1.25e-4,0.67116 -0.312859,2.240712 -0.69496,3.487893 -1.205617,3.935135 -1.26099,3.640931 0.644542,3.42453 0.906844,-0.102983 1.871429,-0.248751 2.143523,-0.323929 z"
       style="fill:#646464;fill-opacity:1;stroke-width:0.29065779"
       sodipodi:nodetypes="cccsssscssssscccsssscccscsscscccccsccsccssscsccccscccccsscccccscccssccssssscccsccccscccccccsccsccccssccscccccscsccscscsscccsccccccccsccsccscccscsscsccscsccccscccsccsccscscccccscscc" />
    <path
       inkscape:connector-curvature="0"
       id="path1007"
       d="m 75.993537,143.79666 c -0.257115,-0.67002 0.12538,-1.362 0.693319,-1.25429 0.307694,0.0583 0.545961,0.41227 0.601498,0.89345 0.07441,0.64467 -0.02446,0.79683 -0.517771,0.79683 -0.335361,0 -0.685031,-0.1962 -0.777046,-0.43599 z m 7.451991,0.18092 c 0,-0.14029 0.196194,-0.4179 0.435986,-0.61691 0.239793,-0.19901 0.435987,-0.66509 0.435987,-1.03573 0,-0.37065 0.130796,-0.75474 0.290658,-0.85354 0.169823,-0.10496 0.290657,0.19379 0.290657,0.71861 0,0.53031 0.178586,0.96678 0.435987,1.06555 0.239793,0.092 0.435987,0.35411 0.435987,0.58242 0,0.3321 -0.122497,0.34956 -0.612521,0.0873 -0.442967,-0.23707 -0.700428,-0.2399 -0.930105,-0.0102 -0.382212,0.38221 -0.782636,0.4142 -0.782636,0.0625 z m 7.84776,-0.0277 c -0.337549,-0.21834 -0.363208,-0.39873 -0.113651,-0.79894 0.497948,-0.79856 1.421611,-0.66488 1.421611,0.20574 0,0.78239 -0.596944,1.05312 -1.30796,0.5932 z m -5.738901,-8.31746 c 0.09413,-0.0941 0.737207,-0.29759 1.429067,-0.45212 1.394759,-0.31155 4.335716,-1.6497 4.668707,-2.1243 0.495523,-0.70625 0.179771,-1.27561 -0.96044,-1.73183 -1.258017,-0.50336 -2.129197,-0.39458 -4.819807,0.60181 -1.296617,0.48017 -2.090688,0.36124 -3.308172,-0.49547 -2.319055,-1.63183 -5.932457,-0.53627 -5.38786,1.63358 0.209674,0.83542 1.314033,1.43916 3.034939,1.65918 1.78017,0.2276 2.180483,0.74107 0.47841,0.61364 -4.014165,-0.30052 -5.53518,-1.94902 -3.872844,-4.19745 1.188173,-1.60708 3.440181,-1.83406 5.897784,-0.59441 l 1.675826,0.8453 1.859663,-0.69997 c 2.574393,-0.96901 4.701836,-0.95005 5.893298,0.0525 2.103502,1.76998 0.578077,3.88949 -3.407233,4.73421 -1.646104,0.3489 -3.463654,0.43764 -3.181338,0.15533 z"
       style="fill:#646464;stroke-width:0.29065779;fill-opacity:1"
       sodipodi:nodetypes="cccscscscscsccsccscccsccccccccccscc" />
    <text
       xml:space="preserve"
       style="font-style:normal;font-variant:normal;font-weight:normal;font-stretch:normal;font-size:52.91667175px;line-height:125%;font-family:Forte;-inkscape-font-specification:Forte;text-align:start;text-anchor:start;opacity:1;vector-effect:none;fill:#646464;fill-opacity:1;fill-rule:nonzero;stroke:none;stroke-width:0.5;stroke-linecap:round;stroke-linejoin:round;stroke-miterlimit:4;stroke-dasharray:none;stroke-dashoffset:0;stroke-opacity:1;"
       x="113.77082"
       y="142.78572"
       id="text1036"><tspan
         sodipodi:role="line"
         id="tspan1034"
         x="113.77082"
         y="142.78572"
         style="font-style:normal;font-variant:normal;font-weight:normal;font-stretch:normal;font-size:52.91667175px;font-family:Forte;-inkscape-font-specification:Forte;fill:#646464;fill-opacity:1;stroke-width:0.5;">Fin</tspan></text>
  </g>
</svg>
